<svg xmlns="http://www.w3.org/2000/svg" width="280" height="280" viewBox="0 0 280 280">
  <defs>
    <pattern id="p" x="0" y="0" width="140" height="140" patternUnits="userSpaceOnUse">
      <path d="M0 0 L140 140" stroke="#0000f2" stroke-opacity="0.18" stroke-width="1" fill="none"/>
      <path d="M140 0 L0 140" stroke="#0000f2" stroke-opacity="0.10" stroke-width="1" fill="none"/>
      <path d="M0 70 L70 0" stroke="#0000f2" stroke-opacity="0.12" stroke-width="1" fill="none"/>
      <path d="M70 140 L140 70" stroke="#0000f2" stroke-opacity="0.12" stroke-width="1" fill="none"/>
      <rect x="0" y="0" width="70" height="70" fill="none" stroke="#0000f2" stroke-opacity="0.07" stroke-width="1"/>
      <rect x="70" y="70" width="70" height="70" fill="none" stroke="#edff45" stroke-opacity="0.12" stroke-width="1"/>
      <rect x="70" y="0" width="140" height="140" fill="none" stroke="#0000f2" stroke-opacity="0.03" stroke-width="1"/>
      <rect x="0" y="0" width="140" height="140" fill="none" stroke="#edff45" stroke-opacity="0.05" stroke-width="1"/>
      <circle cx="70" cy="70" r="7" fill="none" stroke="#edff45" stroke-opacity="0.16" stroke-width="1"/>
      <circle cx="70" cy="70" r="2.5" fill="#0000f2" fill-opacity="0.2"/>
      <circle cx="0" cy="140" r="2.5" fill="#0000f2" fill-opacity="0.16"/>
      <circle cx="140" cy="0" r="2.5" fill="#0000f2" fill-opacity="0.16"/>
      <path d="M35 70 L70 70 M70 35 L70 56 M70 84 L70 105" stroke="#0000f2" stroke-opacity="0.15" stroke-width="1" fill="none"/>
      <path d="M70 35 L84 35 M56 70 L70 70" stroke="#edff45" stroke-opacity="0.2" stroke-width="1" fill="none"/>
    </pattern>
  </defs>
  <rect width="280" height="280" fill="url(#p)"/>
</svg>
